<?xml version="1.0" standalone="no"?>
<!DOCTYPE svg PUBLIC "-//W3C//DTD SVG 20010904//EN"
 "http://www.w3.org/TR/2001/REC-SVG-20010904/DTD/svg10.dtd">
<svg version="1.0" xmlns="http://www.w3.org/2000/svg"
 width="1024.000000pt" height="1024.000000pt" viewBox="0 0 1024.000000 1024.000000"
 preserveAspectRatio="xMidYMid meet">
<metadata>
Created by potrace 1.11, written by Peter Selinger 2001-2013
</metadata>
<g transform="translate(0.000000,1024.000000) scale(0.100000,-0.100000)"
fill="#000000" stroke="none">
<path d="M4975 10224 c-33 -8 -73 -22 -90 -31 -16 -9 -31 -16 -33 -14 -2 1
-29 -12 -60 -30 -84 -47 -189 -159 -234 -249 -59 -118 -67 -147 -74 -265 -3
-44 -7 -86 -9 -92 -2 -7 -1 -13 3 -13 4 0 6 -24 4 -52 -2 -29 -3 -62 -2 -73 1
-24 1 -26 0 -100 -1 -33 -1 -65 0 -70 1 -6 2 -20 1 -31 -1 -21 -6 -23 -131
-49 -14 -3 -32 -8 -40 -11 -8 -3 -26 -8 -39 -10 -14 -3 -90 -28 -170 -55 -80
-27 -150 -51 -156 -52 -5 -2 -14 -5 -20 -9 -5 -3 -53 -24 -105 -46 -93 -40
-241 -114 -310 -156 -19 -12 -52 -30 -72 -41 -21 -11 -38 -23 -38 -27 0 -5 -5
-8 -10 -8 -11 0 -184 -115 -211 -140 -8 -8 -26 -22 -39 -30 -12 -8 -28 -20
-34 -25 -6 -6 -36 -30 -65 -55 -30 -25 -64 -54 -76 -65 -12 -11 -46 -43 -76
-71 -61 -57 -178 -182 -224 -238 -16 -20 -42 -49 -57 -65 -16 -16 -28 -34 -28
-39 0 -5 -7 -16 -16 -23 -9 -8 -27 -30 -40 -49 -13 -19 -37 -53 -53 -75 -17
-22 -34 -47 -37 -55 -4 -8 -13 -22 -20 -30 -6 -8 -21 -31 -32 -51 -39 -69 -47
-83 -59 -97 -7 -7 -13 -18 -13 -24 0 -5 -9 -22 -19 -36 -10 -15 -19 -29 -19
-32 0 -3 -20 -48 -45 -100 -59 -125 -69 -150 -106 -245 -32 -84 -100 -302
-107 -345 -3 -14 -7 -32 -10 -40 -3 -8 -7 -26 -9 -40 -2 -14 -8 -45 -14 -70
-5 -25 -12 -65 -16 -90 -3 -25 -8 -58 -12 -75 -3 -16 -8 -48 -9 -70 -2 -22 -6
-67 -9 -100 -4 -33 -8 -103 -11 -155 -2 -52 -4 -99 -5 -105 0 -5 1 -27 3 -47
3 -21 1 -38 -4 -38 -5 0 -4 -8 1 -18 6 -11 6 -24 0 -34 -6 -11 -6 -19 1 -23 6
-4 8 -11 5 -16 -4 -5 -8 -71 -10 -147 -5 -170 -13 -284 -30 -447 -3 -27 -7
-66 -9 -85 -10 -88 -23 -182 -32 -230 -5 -25 -17 -95 -29 -160 -3 -19 -8 -42
-10 -50 -2 -8 -7 -30 -10 -48 -21 -124 -152 -561 -176 -586 -5 -6 -9 -16 -9
-23 0 -22 -109 -256 -121 -261 -5 -2 -7 -7 -4 -12 3 -4 -6 -23 -19 -43 -13
-19 -27 -45 -31 -58 -4 -12 -12 -27 -16 -33 -5 -6 -47 -68 -93 -137 -76 -116
-206 -286 -274 -357 -65 -70 -226 -243 -262 -283 -22 -24 -40 -50 -40 -56 0
-7 -4 -13 -9 -13 -10 0 -68 -125 -75 -160 -2 -14 -5 -25 -6 -25 -19 0 -19
-247 0 -310 8 -27 13 -53 12 -57 -1 -5 2 -8 8 -8 5 0 10 -7 10 -16 0 -18 59
-127 72 -132 4 -2 8 -9 8 -15 0 -12 138 -147 150 -147 5 0 15 -6 22 -14 28
-27 194 -86 255 -89 33 -2 65 -7 71 -11 6 -4 20 -2 31 4 14 7 22 7 26 0 4 -7
11 -7 18 -2 7 5 21 6 32 2 11 -4 30 -4 43 1 14 5 22 5 22 -2 0 -6 7 -6 19 1
14 7 22 7 26 0 4 -7 11 -7 18 -2 7 5 21 6 32 2 11 -4 30 -4 42 1 15 5 23 5 23
-2 0 -6 7 -6 19 1 14 7 22 7 26 0 4 -7 11 -7 18 -2 7 5 21 6 32 2 11 -4 30 -4
43 1 14 5 22 5 22 -2 0 -6 6 -6 18 0 13 7 22 7 29 0 8 -8 13 -8 17 0 4 7 15 7
30 1 13 -5 26 -7 29 -4 9 9 62 11 79 2 10 -5 19 -4 23 2 4 6 15 6 30 0 14 -5
25 -6 25 -2 0 9 65 6 80 -3 6 -3 10 -2 10 4 0 7 8 7 25 1 15 -6 25 -6 25 0 0
5 12 5 27 1 16 -4 40 -4 55 0 16 4 28 3 28 -2 0 -6 7 -6 18 0 11 6 24 6 34 0
10 -6 19 -6 23 0 4 7 15 7 30 1 17 -6 25 -6 25 1 0 6 5 7 11 4 13 -9 117 -10
125 -2 3 3 17 2 30 -3 15 -6 24 -6 24 0 0 6 9 6 25 0 15 -6 25 -6 25 0 0 5 12
5 28 1 15 -4 39 -4 55 0 15 4 27 3 27 -2 0 -6 7 -6 18 0 11 6 24 6 34 0 10 -6
19 -6 23 0 4 7 15 7 30 1 17 -6 25 -6 25 1 0 6 5 7 11 3 14 -8 145 -8 159 1 5
3 10 2 10 -4 0 -7 8 -7 25 -1 16 6 25 6 25 -1 0 -6 6 -6 18 0 11 6 24 6 35 0
11 -6 24 -6 36 1 14 7 22 7 26 0 4 -7 11 -7 18 -2 7 5 21 6 32 2 11 -4 30 -4
43 1 14 5 22 5 22 -2 0 -6 7 -6 19 1 14 7 22 7 26 0 4 -7 11 -7 18 -2 7 5 21
6 32 2 11 -4 30 -4 43 1 14 5 22 5 22 -2 0 -6 7 -6 19 1 14 7 22 7 26 0 4 -7
11 -7 18 -2 7 5 21 6 32 2 11 -4 30 -4 43 1 14 5 22 5 22 -2 0 -6 6 -6 18 0
13 7 22 7 29 0 8 -8 13 -8 17 0 4 7 15 7 30 1 13 -5 26 -7 29 -4 9 9 62 11 85
2 12 -4 22 -4 22 2 0 5 12 5 28 1 15 -5 37 -4 50 0 13 5 22 4 22 -1 0 -6 9 -6
25 0 15 6 26 6 30 0 4 -6 13 -7 23 -1 11 6 24 6 34 0 10 -6 19 -6 22 0 4 5 18
6 34 2 15 -5 37 -4 50 0 13 5 22 4 22 -1 0 -6 9 -6 25 0 15 6 26 6 30 0 4 -6
13 -7 23 -1 11 6 24 6 34 0 10 -6 19 -6 23 0 4 7 15 7 30 1 14 -5 25 -6 25 -2
0 4 11 7 25 7 14 0 25 -3 25 -7 0 -4 11 -3 25 2 16 6 25 6 25 0 0 -6 9 -6 25
0 15 6 26 6 30 0 4 -7 13 -6 25 0 13 7 21 7 25 0 4 -6 13 -7 23 -1 11 6 24 6
35 0 11 -7 17 -7 17 0 0 6 11 7 28 2 15 -4 39 -4 54 0 16 4 30 3 34 -2 3 -5
13 -5 24 1 13 7 21 7 25 0 4 -7 12 -7 23 -1 10 6 23 6 34 0 12 -6 18 -6 18 0
0 6 11 6 28 2 15 -4 39 -4 55 0 15 4 27 4 27 0 0 -4 23 -5 50 -1 28 4 50 3 50
-2 0 -5 8 -4 18 1 10 6 24 6 32 1 8 -5 18 -6 24 -3 14 9 67 9 73 0 2 -4 13 -3
23 3 13 7 21 7 25 0 4 -6 13 -7 23 -1 11 6 24 6 35 0 11 -7 17 -7 17 0 0 6 11
7 28 2 15 -4 39 -4 55 0 15 4 27 3 27 -2 0 -5 11 -4 25 1 15 6 26 6 30 0 4 -6
13 -7 24 -1 10 6 23 6 31 1 8 -5 21 -5 31 1 11 6 20 5 24 -1 4 -6 13 -7 23 -2
9 5 28 6 42 2 14 -4 35 -3 48 1 13 5 22 5 22 -1 0 -6 9 -6 25 0 15 6 26 6 30
0 4 -6 13 -7 23 -1 11 6 24 6 34 0 10 -6 19 -6 23 0 4 7 15 7 30 1 15 -6 25
-6 25 0 0 5 12 5 30 0 17 -5 32 -5 35 0 3 5 16 5 30 0 16 -6 25 -6 25 0 0 6 9
6 23 1 12 -4 33 -5 47 -1 14 4 33 3 42 -2 10 -5 19 -4 23 2 4 6 13 7 23 1 10
-5 24 -6 33 -1 8 5 21 5 28 0 8 -4 27 -4 42 0 18 5 29 5 29 -1 0 -6 6 -6 18 0
10 6 24 6 32 1 8 -5 18 -6 24 -3 14 9 67 9 73 0 2 -4 13 -3 23 3 13 7 21 7 25
0 4 -6 13 -7 23 -1 11 6 24 6 35 0 11 -7 17 -7 17 0 0 6 11 7 28 2 15 -4 39
-4 55 0 15 4 27 3 27 -2 0 -5 11 -4 25 1 15 6 26 6 30 0 4 -6 13 -7 24 -1 10
6 23 6 31 1 8 -5 21 -5 31 1 11 6 20 5 24 -1 4 -6 13 -7 23 -2 9 5 28 6 42 2
14 -4 35 -3 48 1 13 5 22 5 22 -1 0 -6 9 -6 25 0 15 6 26 6 30 0 4 -6 13 -7
23 -1 11 6 24 6 34 0 10 -6 19 -6 23 0 4 7 15 7 30 1 15 -6 25 -6 25 0 0 5 12
5 30 0 17 -5 32 -5 35 0 3 5 16 5 30 0 16 -6 25 -6 25 0 0 6 9 6 23 1 12 -4
33 -5 47 -1 14 4 33 3 42 -2 10 -5 19 -4 23 2 4 6 13 7 24 1 10 -6 23 -6 31
-1 8 5 21 5 30 0 9 -5 22 -5 30 0 7 4 24 4 37 -1 13 -5 23 -5 23 1 0 5 12 5
28 1 15 -5 37 -4 50 0 13 5 22 4 22 -1 0 -6 9 -6 25 0 15 6 26 6 30 0 4 -6 13
-7 23 -1 11 6 24 6 34 0 10 -6 19 -6 22 0 4 5 18 6 34 2 15 -5 37 -4 50 0 13
5 22 4 22 -1 0 -6 9 -6 25 0 15 6 26 6 30 -1 4 -6 13 -6 23 0 10 6 23 6 34 0
10 -6 19 -5 23 1 4 6 15 6 30 0 14 -5 25 -6 25 -2 0 4 11 7 25 7 14 0 25 -3
25 -7 0 -4 11 -3 25 2 16 6 25 6 25 0 0 -6 9 -6 25 0 15 6 26 6 30 0 4 -7 13
-6 25 0 13 7 21 7 25 0 4 -6 13 -7 23 -1 11 6 24 6 35 0 11 -7 17 -7 17 0 0 6
11 7 28 2 15 -4 39 -4 54 0 16 4 30 3 34 -2 3 -5 13 -5 24 1 13 7 21 7 25 0 4
-6 13 -7 23 -1 11 6 24 6 35 0 11 -7 17 -7 17 0 0 6 11 7 28 2 15 -4 39 -4 55
0 15 4 27 4 27 0 0 -3 15 -5 33 -4 17 2 55 5 84 7 55 5 154 30 188 49 11 6 22
12 25 13 3 1 15 5 28 9 12 4 22 11 22 15 0 5 9 12 21 15 26 9 179 161 179 180
0 7 4 15 8 17 16 6 70 134 86 204 20 89 16 225 -9 309 -10 33 -16 61 -14 61 2
1 -5 11 -15 23 -11 12 -16 21 -13 21 25 0 -108 165 -240 296 -24 24 -43 45
-43 48 0 3 -19 24 -42 48 -24 24 -59 63 -78 87 -19 24 -50 60 -67 80 -18 20
-33 39 -33 42 0 3 -9 17 -21 30 -28 32 -162 233 -193 289 -71 129 -182 367
-211 450 -1 3 -4 12 -8 20 -17 43 -68 198 -73 220 -2 14 -7 32 -11 40 -8 21
-11 30 -18 65 -3 17 -9 39 -12 50 -4 11 -8 25 -9 30 -1 6 -7 29 -13 53 -7 24
-14 56 -16 72 -2 16 -6 37 -9 47 -3 10 -7 29 -10 43 -5 31 -17 98 -23 125 -15
82 -31 200 -26 208 2 4 1 7 -4 7 -4 0 -8 17 -9 38 -1 35 -10 139 -19 207 -7
57 -17 221 -20 338 -1 65 -5 121 -8 124 -3 3 -2 16 3 29 6 14 6 26 0 29 -6 3
-6 15 0 30 5 14 6 25 2 25 -5 0 -7 15 -5 33 2 17 4 37 4 42 -5 142 -18 346
-26 386 -3 13 -7 47 -10 74 -6 53 -12 86 -20 123 -12 51 -14 61 -19 93 -3 19
-15 68 -26 109 -12 41 -23 84 -25 94 -5 23 -24 85 -32 106 -3 8 -8 24 -10 34
-2 11 -8 25 -13 31 -5 6 -11 20 -13 31 -4 17 -14 46 -34 94 -3 8 -7 20 -8 25
-2 6 -17 39 -33 75 -17 36 -31 70 -33 75 -1 6 -13 27 -26 48 -13 20 -20 37
-16 37 5 0 2 4 -5 9 -7 4 -14 14 -15 22 -2 8 -13 33 -27 54 -13 22 -32 56 -43
75 -36 66 -141 220 -150 220 -4 0 -6 4 -3 8 3 5 -3 18 -12 28 -10 10 -31 37
-47 59 -16 22 -38 47 -47 56 -10 9 -18 19 -18 23 0 3 -8 14 -17 24 -10 10 -44
48 -76 85 -77 88 -238 243 -323 312 -27 22 -55 44 -61 50 -31 25 -141 107
-180 132 -70 47 -174 113 -178 113 -3 0 -33 17 -67 38 -82 50 -316 162 -388
187 -3 1 -18 7 -33 13 -16 7 -32 12 -37 12 -5 0 -24 6 -42 14 -36 16 -68 28
-83 31 -5 2 -37 12 -70 23 -33 11 -103 30 -155 42 -52 12 -102 25 -110 27 -8
2 -17 4 -20 3 -9 -2 -16 65 -9 97 4 18 4 34 2 37 -8 8 -9 106 -2 106 4 0 4 15
0 33 -4 17 -4 44 0 59 4 15 5 29 3 31 -3 2 -6 40 -8 83 -5 89 -19 162 -42 205
-8 16 -12 29 -10 29 6 0 -46 90 -64 113 -49 63 -116 126 -169 160 -36 23 -68
41 -73 40 -4 -2 -8 2 -8 7 0 6 -8 10 -18 10 -10 0 -23 5 -30 12 -7 7 -12 8
-12 4 0 -5 -7 -3 -15 4 -8 7 -15 10 -15 7 0 -3 -15 -1 -32 5 -52 16 -226 17
-293 2z"/>
<path d="M3863 1279 c-20 -7 -22 -13 -18 -86 6 -132 39 -272 95 -403 17 -41
37 -87 43 -102 6 -16 15 -28 19 -28 4 0 8 -5 8 -10 0 -10 65 -113 89 -142 106
-125 140 -161 230 -233 68 -55 229 -151 269 -161 12 -4 22 -10 22 -16 0 -5 4
-7 8 -4 4 2 21 -2 37 -9 113 -52 304 -84 485 -80 126 3 156 6 220 20 14 3 38
8 54 10 16 3 36 10 45 14 9 5 21 9 26 10 18 1 99 32 175 68 198 93 384 250
499 423 20 30 38 57 42 60 24 22 160 340 145 340 -2 0 2 21 10 46 15 52 27
143 28 223 1 51 -1 55 -26 62 -16 4 -28 3 -28 -2 0 -5 -10 -5 -24 1 -13 5 -27
6 -30 3 -8 -8 -74 -8 -82 0 -3 3 -17 2 -30 -3 -14 -6 -26 -6 -29 0 -3 6 -15 6
-30 0 -15 -6 -27 -6 -30 0 -3 6 -15 6 -30 0 -15 -6 -27 -6 -30 0 -3 6 -15 6
-30 0 -15 -6 -27 -6 -30 0 -3 6 -15 6 -30 0 -15 -6 -27 -6 -30 0 -3 6 -15 6
-30 0 -15 -6 -27 -6 -30 0 -3 6 -15 6 -30 0 -15 -6 -27 -6 -30 0 -3 6 -15 6
-30 0 -15 -6 -27 -6 -30 0 -3 6 -15 6 -30 0 -15 -6 -27 -6 -30 0 -3 6 -15 6
-30 0 -15 -6 -27 -6 -30 0 -3 6 -15 6 -30 0 -15 -6 -27 -6 -30 0 -3 6 -15 6
-30 0 -15 -6 -27 -6 -30 0 -3 6 -15 6 -30 0 -15 -6 -27 -6 -30 0 -3 6 -15 6
-30 0 -15 -6 -27 -6 -30 0 -3 6 -15 6 -30 0 -15 -6 -27 -6 -30 0 -3 6 -15 6
-30 0 -15 -6 -27 -6 -30 0 -3 6 -15 6 -29 0 -13 -5 -27 -6 -30 -3 -3 3 -28 6
-56 6 -28 0 -53 -3 -56 -6 -3 -3 -17 -2 -30 3 -14 6 -26 6 -29 -1 -4 -6 -13
-6 -23 0 -9 5 -26 5 -37 1 -12 -5 -28 -5 -35 0 -7 5 -24 4 -36 0 -14 -6 -26
-5 -29 0 -3 5 -15 6 -28 1 -12 -5 -32 -5 -44 0 -13 5 -25 4 -28 -1 -3 -6 -15
-6 -30 0 -15 6 -27 6 -30 -1 -4 -6 -13 -6 -23 0 -9 5 -26 5 -37 1 -12 -5 -28
-5 -35 0 -7 5 -24 4 -36 0 -14 -6 -26 -5 -29 0 -3 5 -15 6 -28 1 -12 -5 -32
-5 -44 0 -13 5 -25 4 -28 -1 -3 -6 -15 -6 -30 0 -15 6 -27 6 -30 -1 -4 -6 -13
-6 -23 0 -9 5 -26 5 -37 1 -12 -5 -28 -5 -35 0 -7 5 -24 4 -36 0 -14 -6 -26
-5 -29 0 -3 5 -15 6 -28 1 -12 -5 -32 -5 -44 0 -13 5 -25 4 -28 -1 -3 -6 -15
-6 -30 0 -15 6 -27 6 -30 -1 -4 -6 -13 -6 -23 0 -9 5 -26 5 -37 1 -12 -5 -28
-5 -35 0 -7 5 -23 4 -35 0 -13 -5 -26 -5 -31 0 -5 4 -19 4 -31 -1z"/>
</g>
</svg>
